<mxfile host="app.diagrams.net" agent="Mozilla/5.0 (Windows NT 10.0; Win64; x64) AppleWebKit/537.36 (KHTML, like Gecko) Chrome/133.0.0.0 Safari/537.36 Edg/133.0.0.0" version="26.0.8">
  <diagram name="Page-1" id="5MKAHm1wfXt7gwnGmRr9">
    <mxGraphModel dx="2026" dy="1336" grid="1" gridSize="10" guides="1" tooltips="1" connect="1" arrows="1" fold="1" page="0" pageScale="1" pageWidth="1100" pageHeight="850" background="#ffffff" math="0" shadow="1">
      <root>
        <mxCell id="0" />
        <mxCell id="1" parent="0" />
        <mxCell id="FcwJixSid9qahFUKWtzI-1" value="User" style="whiteSpace=wrap;strokeWidth=2;hachureGap=4;fontFamily=Architects Daughter;fontSource=https%3A%2F%2Ffonts.googleapis.com%2Fcss%3Ffamily%3DArchitects%2BDaughter;labelBackgroundColor=none;fillColor=#FAD9D5;strokeColor=#D0CEE2;fontColor=#1A1A1A;" vertex="1" parent="1">
          <mxGeometry x="506" y="20" width="92" height="54" as="geometry" />
        </mxCell>
        <mxCell id="FcwJixSid9qahFUKWtzI-2" value="Error Message" style="whiteSpace=wrap;strokeWidth=2;hachureGap=4;fontFamily=Architects Daughter;fontSource=https%3A%2F%2Ffonts.googleapis.com%2Fcss%3Ffamily%3DArchitects%2BDaughter;labelBackgroundColor=none;fillColor=#FAD9D5;strokeColor=#D0CEE2;fontColor=#1A1A1A;" vertex="1" parent="1">
          <mxGeometry x="473" y="124" width="159" height="54" as="geometry" />
        </mxCell>
        <mxCell id="FcwJixSid9qahFUKWtzI-3" value="Authentication" style="rhombus;strokeWidth=2;whiteSpace=wrap;hachureGap=4;fontFamily=Architects Daughter;fontSource=https%3A%2F%2Ffonts.googleapis.com%2Fcss%3Ffamily%3DArchitects%2BDaughter;labelBackgroundColor=none;fillColor=#FAD9D5;strokeColor=#D0CEE2;fontColor=#1A1A1A;" vertex="1" parent="1">
          <mxGeometry x="472" y="251" width="160" height="160" as="geometry" />
        </mxCell>
        <mxCell id="FcwJixSid9qahFUKWtzI-4" value="Dashboard" style="whiteSpace=wrap;strokeWidth=2;hachureGap=4;fontFamily=Architects Daughter;fontSource=https%3A%2F%2Ffonts.googleapis.com%2Fcss%3Ffamily%3DArchitects%2BDaughter;labelBackgroundColor=none;fillColor=#FAD9D5;strokeColor=#D0CEE2;fontColor=#1A1A1A;" vertex="1" parent="1">
          <mxGeometry x="485" y="485" width="134" height="54" as="geometry" />
        </mxCell>
        <mxCell id="FcwJixSid9qahFUKWtzI-5" value="Add Income &amp; Expense" style="whiteSpace=wrap;strokeWidth=2;hachureGap=4;fontFamily=Architects Daughter;fontSource=https%3A%2F%2Ffonts.googleapis.com%2Fcss%3Ffamily%3DArchitects%2BDaughter;labelBackgroundColor=none;fillColor=#FAD9D5;strokeColor=#D0CEE2;fontColor=#1A1A1A;" vertex="1" parent="1">
          <mxGeometry x="20" y="589" width="223" height="54" as="geometry" />
        </mxCell>
        <mxCell id="FcwJixSid9qahFUKWtzI-6" value="View Predictions &amp; Insights" style="whiteSpace=wrap;strokeWidth=2;hachureGap=4;fontFamily=Architects Daughter;fontSource=https%3A%2F%2Ffonts.googleapis.com%2Fcss%3Ffamily%3DArchitects%2BDaughter;labelBackgroundColor=none;fillColor=#FAD9D5;strokeColor=#D0CEE2;fontColor=#1A1A1A;" vertex="1" parent="1">
          <mxGeometry x="426" y="589" width="253" height="54" as="geometry" />
        </mxCell>
        <mxCell id="FcwJixSid9qahFUKWtzI-7" value="Set Budget &amp; Alerts" style="whiteSpace=wrap;strokeWidth=2;hachureGap=4;fontFamily=Architects Daughter;fontSource=https%3A%2F%2Ffonts.googleapis.com%2Fcss%3Ffamily%3DArchitects%2BDaughter;labelBackgroundColor=none;fillColor=#FAD9D5;strokeColor=#D0CEE2;fontColor=#1A1A1A;" vertex="1" parent="1">
          <mxGeometry x="994" y="589" width="199" height="54" as="geometry" />
        </mxCell>
        <mxCell id="FcwJixSid9qahFUKWtzI-8" value="Store in Database" style="whiteSpace=wrap;strokeWidth=2;hachureGap=4;fontFamily=Architects Daughter;fontSource=https%3A%2F%2Ffonts.googleapis.com%2Fcss%3Ffamily%3DArchitects%2BDaughter;labelBackgroundColor=none;fillColor=#FAD9D5;strokeColor=#D0CEE2;fontColor=#1A1A1A;" vertex="1" parent="1">
          <mxGeometry x="38" y="693" width="186" height="54" as="geometry" />
        </mxCell>
        <mxCell id="FcwJixSid9qahFUKWtzI-9" value="Predict Future Expenses" style="whiteSpace=wrap;strokeWidth=2;hachureGap=4;fontFamily=Architects Daughter;fontSource=https%3A%2F%2Ffonts.googleapis.com%2Fcss%3Ffamily%3DArchitects%2BDaughter;labelBackgroundColor=none;fillColor=#FAD9D5;strokeColor=#D0CEE2;fontColor=#1A1A1A;" vertex="1" parent="1">
          <mxGeometry x="296" y="693" width="232" height="54" as="geometry" />
        </mxCell>
        <mxCell id="FcwJixSid9qahFUKWtzI-10" value="Show Insights &amp; Graphs" style="whiteSpace=wrap;strokeWidth=2;hachureGap=4;fontFamily=Architects Daughter;fontSource=https%3A%2F%2Ffonts.googleapis.com%2Fcss%3Ffamily%3DArchitects%2BDaughter;labelBackgroundColor=none;fillColor=#FAD9D5;strokeColor=#D0CEE2;fontColor=#1A1A1A;" vertex="1" parent="1">
          <mxGeometry x="579" y="693" width="226" height="54" as="geometry" />
        </mxCell>
        <mxCell id="FcwJixSid9qahFUKWtzI-11" value="Set Monthly Budget" style="whiteSpace=wrap;strokeWidth=2;hachureGap=4;fontFamily=Architects Daughter;fontSource=https%3A%2F%2Ffonts.googleapis.com%2Fcss%3Ffamily%3DArchitects%2BDaughter;labelBackgroundColor=none;fillColor=#FAD9D5;strokeColor=#D0CEE2;fontColor=#1A1A1A;" vertex="1" parent="1">
          <mxGeometry x="855" y="693" width="199" height="54" as="geometry" />
        </mxCell>
        <mxCell id="FcwJixSid9qahFUKWtzI-12" value="Get Alerts for Overspending" style="whiteSpace=wrap;strokeWidth=2;hachureGap=4;fontFamily=Architects Daughter;fontSource=https%3A%2F%2Ffonts.googleapis.com%2Fcss%3Ffamily%3DArchitects%2BDaughter;labelBackgroundColor=none;fillColor=#FAD9D5;strokeColor=#D0CEE2;fontColor=#1A1A1A;" vertex="1" parent="1">
          <mxGeometry x="1103" y="693" width="259" height="54" as="geometry" />
        </mxCell>
        <mxCell id="FcwJixSid9qahFUKWtzI-13" value="Use ML Model" style="whiteSpace=wrap;strokeWidth=2;hachureGap=4;fontFamily=Architects Daughter;fontSource=https%3A%2F%2Ffonts.googleapis.com%2Fcss%3Ffamily%3DArchitects%2BDaughter;labelBackgroundColor=none;fillColor=#FAD9D5;strokeColor=#D0CEE2;fontColor=#1A1A1A;" vertex="1" parent="1">
          <mxGeometry x="334" y="797" width="156" height="54" as="geometry" />
        </mxCell>
        <mxCell id="FcwJixSid9qahFUKWtzI-14" value="Generate Reports" style="whiteSpace=wrap;strokeWidth=2;hachureGap=4;fontFamily=Architects Daughter;fontSource=https%3A%2F%2Ffonts.googleapis.com%2Fcss%3Ffamily%3DArchitects%2BDaughter;labelBackgroundColor=none;fillColor=#FAD9D5;strokeColor=#D0CEE2;fontColor=#1A1A1A;" vertex="1" parent="1">
          <mxGeometry x="599" y="797" width="185" height="54" as="geometry" />
        </mxCell>
        <mxCell id="FcwJixSid9qahFUKWtzI-15" value="Update User Budget" style="whiteSpace=wrap;strokeWidth=2;hachureGap=4;fontFamily=Architects Daughter;fontSource=https%3A%2F%2Ffonts.googleapis.com%2Fcss%3Ffamily%3DArchitects%2BDaughter;labelBackgroundColor=none;fillColor=#FAD9D5;strokeColor=#D0CEE2;fontColor=#1A1A1A;" vertex="1" parent="1">
          <mxGeometry x="853" y="797" width="203" height="54" as="geometry" />
        </mxCell>
        <mxCell id="FcwJixSid9qahFUKWtzI-16" value="MySQL Database" style="whiteSpace=wrap;strokeWidth=2;hachureGap=4;fontFamily=Architects Daughter;fontSource=https%3A%2F%2Ffonts.googleapis.com%2Fcss%3Ffamily%3DArchitects%2BDaughter;labelBackgroundColor=none;fillColor=#FAD9D5;strokeColor=#D0CEE2;fontColor=#1A1A1A;" vertex="1" parent="1">
          <mxGeometry x="44" y="797" width="176" height="54" as="geometry" />
        </mxCell>
        <mxCell id="FcwJixSid9qahFUKWtzI-17" value="Python: scikit-learn, TensorFlow" style="whiteSpace=wrap;strokeWidth=2;hachureGap=4;fontFamily=Architects Daughter;fontSource=https%3A%2F%2Ffonts.googleapis.com%2Fcss%3Ffamily%3DArchitects%2BDaughter;labelBackgroundColor=none;fillColor=#FAD9D5;strokeColor=#D0CEE2;fontColor=#1A1A1A;" vertex="1" parent="1">
          <mxGeometry x="283" y="901" width="260" height="54" as="geometry" />
        </mxCell>
        <mxCell id="FcwJixSid9qahFUKWtzI-18" value="Export as PDF/CSV" style="whiteSpace=wrap;strokeWidth=2;hachureGap=4;fontFamily=Architects Daughter;fontSource=https%3A%2F%2Ffonts.googleapis.com%2Fcss%3Ffamily%3DArchitects%2BDaughter;labelBackgroundColor=none;fillColor=#FAD9D5;strokeColor=#D0CEE2;fontColor=#1A1A1A;" vertex="1" parent="1">
          <mxGeometry x="595" y="901" width="193" height="54" as="geometry" />
        </mxCell>
        <mxCell id="FcwJixSid9qahFUKWtzI-19" value="User Data Storage" style="whiteSpace=wrap;strokeWidth=2;hachureGap=4;fontFamily=Architects Daughter;fontSource=https%3A%2F%2Ffonts.googleapis.com%2Fcss%3Ffamily%3DArchitects%2BDaughter;labelBackgroundColor=none;fillColor=#FAD9D5;strokeColor=#D0CEE2;fontColor=#1A1A1A;" vertex="1" parent="1">
          <mxGeometry x="37" y="901" width="188" height="54" as="geometry" />
        </mxCell>
        <mxCell id="FcwJixSid9qahFUKWtzI-20" value="Predictive Analysis Results" style="whiteSpace=wrap;strokeWidth=2;hachureGap=4;fontFamily=Architects Daughter;fontSource=https%3A%2F%2Ffonts.googleapis.com%2Fcss%3Ffamily%3DArchitects%2BDaughter;labelBackgroundColor=none;fillColor=#FAD9D5;strokeColor=#D0CEE2;fontColor=#1A1A1A;" vertex="1" parent="1">
          <mxGeometry x="289" y="1004" width="248" height="54" as="geometry" />
        </mxCell>
        <mxCell id="FcwJixSid9qahFUKWtzI-21" value="Download Report" style="whiteSpace=wrap;strokeWidth=2;hachureGap=4;fontFamily=Architects Daughter;fontSource=https%3A%2F%2Ffonts.googleapis.com%2Fcss%3Ffamily%3DArchitects%2BDaughter;labelBackgroundColor=none;fillColor=#FAD9D5;strokeColor=#D0CEE2;fontColor=#1A1A1A;" vertex="1" parent="1">
          <mxGeometry x="601" y="1004" width="182" height="54" as="geometry" />
        </mxCell>
        <mxCell id="FcwJixSid9qahFUKWtzI-22" value="" style="curved=1;startArrow=none;endArrow=block;exitX=0.5;exitY=1;entryX=0.5;entryY=0;rounded=0;hachureGap=4;fontFamily=Architects Daughter;fontSource=https%3A%2F%2Ffonts.googleapis.com%2Fcss%3Ffamily%3DArchitects%2BDaughter;labelBackgroundColor=none;strokeColor=#09555B;fontColor=default;" edge="1" parent="1" source="FcwJixSid9qahFUKWtzI-1" target="FcwJixSid9qahFUKWtzI-2">
          <mxGeometry relative="1" as="geometry">
            <Array as="points" />
          </mxGeometry>
        </mxCell>
        <mxCell id="FcwJixSid9qahFUKWtzI-23" value="" style="curved=1;startArrow=none;endArrow=block;exitX=0.44;exitY=1;entryX=0.4;entryY=0;rounded=0;hachureGap=4;fontFamily=Architects Daughter;fontSource=https%3A%2F%2Ffonts.googleapis.com%2Fcss%3Ffamily%3DArchitects%2BDaughter;labelBackgroundColor=none;strokeColor=#09555B;fontColor=default;" edge="1" parent="1" source="FcwJixSid9qahFUKWtzI-2" target="FcwJixSid9qahFUKWtzI-3">
          <mxGeometry relative="1" as="geometry">
            <Array as="points">
              <mxPoint x="529" y="215" />
            </Array>
          </mxGeometry>
        </mxCell>
        <mxCell id="FcwJixSid9qahFUKWtzI-24" value="Valid" style="curved=1;startArrow=none;endArrow=block;exitX=0.5;exitY=1;entryX=0.5;entryY=-0.01;rounded=0;hachureGap=4;fontFamily=Architects Daughter;fontSource=https%3A%2F%2Ffonts.googleapis.com%2Fcss%3Ffamily%3DArchitects%2BDaughter;labelBackgroundColor=none;strokeColor=#09555B;fontColor=default;" edge="1" parent="1" source="FcwJixSid9qahFUKWtzI-3" target="FcwJixSid9qahFUKWtzI-4">
          <mxGeometry relative="1" as="geometry">
            <Array as="points" />
          </mxGeometry>
        </mxCell>
        <mxCell id="FcwJixSid9qahFUKWtzI-25" value="Invalid" style="curved=1;startArrow=none;endArrow=block;exitX=0.6;exitY=0;entryX=0.56;entryY=1;rounded=0;hachureGap=4;fontFamily=Architects Daughter;fontSource=https%3A%2F%2Ffonts.googleapis.com%2Fcss%3Ffamily%3DArchitects%2BDaughter;labelBackgroundColor=none;strokeColor=#09555B;fontColor=default;" edge="1" parent="1" source="FcwJixSid9qahFUKWtzI-3" target="FcwJixSid9qahFUKWtzI-2">
          <mxGeometry relative="1" as="geometry">
            <Array as="points">
              <mxPoint x="575" y="215" />
            </Array>
          </mxGeometry>
        </mxCell>
        <mxCell id="FcwJixSid9qahFUKWtzI-26" value="" style="curved=1;startArrow=none;endArrow=block;exitX=0;exitY=0.65;entryX=0.5;entryY=-0.01;rounded=0;hachureGap=4;fontFamily=Architects Daughter;fontSource=https%3A%2F%2Ffonts.googleapis.com%2Fcss%3Ffamily%3DArchitects%2BDaughter;labelBackgroundColor=none;strokeColor=#09555B;fontColor=default;" edge="1" parent="1" source="FcwJixSid9qahFUKWtzI-4" target="FcwJixSid9qahFUKWtzI-5">
          <mxGeometry relative="1" as="geometry">
            <Array as="points">
              <mxPoint x="131" y="564" />
            </Array>
          </mxGeometry>
        </mxCell>
        <mxCell id="FcwJixSid9qahFUKWtzI-27" value="" style="curved=1;startArrow=none;endArrow=block;exitX=0.5;exitY=0.99;entryX=0.5;entryY=-0.01;rounded=0;hachureGap=4;fontFamily=Architects Daughter;fontSource=https%3A%2F%2Ffonts.googleapis.com%2Fcss%3Ffamily%3DArchitects%2BDaughter;labelBackgroundColor=none;strokeColor=#09555B;fontColor=default;" edge="1" parent="1" source="FcwJixSid9qahFUKWtzI-4" target="FcwJixSid9qahFUKWtzI-6">
          <mxGeometry relative="1" as="geometry">
            <Array as="points" />
          </mxGeometry>
        </mxCell>
        <mxCell id="FcwJixSid9qahFUKWtzI-28" value="" style="curved=1;startArrow=none;endArrow=block;exitX=1;exitY=0.61;entryX=0.5;entryY=-0.01;rounded=0;hachureGap=4;fontFamily=Architects Daughter;fontSource=https%3A%2F%2Ffonts.googleapis.com%2Fcss%3Ffamily%3DArchitects%2BDaughter;labelBackgroundColor=none;strokeColor=#09555B;fontColor=default;" edge="1" parent="1" source="FcwJixSid9qahFUKWtzI-4" target="FcwJixSid9qahFUKWtzI-7">
          <mxGeometry relative="1" as="geometry">
            <Array as="points">
              <mxPoint x="1093" y="564" />
            </Array>
          </mxGeometry>
        </mxCell>
        <mxCell id="FcwJixSid9qahFUKWtzI-29" value="" style="curved=1;startArrow=none;endArrow=block;exitX=0.5;exitY=0.99;entryX=0.5;entryY=-0.01;rounded=0;hachureGap=4;fontFamily=Architects Daughter;fontSource=https%3A%2F%2Ffonts.googleapis.com%2Fcss%3Ffamily%3DArchitects%2BDaughter;labelBackgroundColor=none;strokeColor=#09555B;fontColor=default;" edge="1" parent="1" source="FcwJixSid9qahFUKWtzI-5" target="FcwJixSid9qahFUKWtzI-8">
          <mxGeometry relative="1" as="geometry">
            <Array as="points" />
          </mxGeometry>
        </mxCell>
        <mxCell id="FcwJixSid9qahFUKWtzI-30" value="" style="curved=1;startArrow=none;endArrow=block;exitX=0.21;exitY=0.99;entryX=0.5;entryY=-0.01;rounded=0;hachureGap=4;fontFamily=Architects Daughter;fontSource=https%3A%2F%2Ffonts.googleapis.com%2Fcss%3Ffamily%3DArchitects%2BDaughter;labelBackgroundColor=none;strokeColor=#09555B;fontColor=default;" edge="1" parent="1" source="FcwJixSid9qahFUKWtzI-6" target="FcwJixSid9qahFUKWtzI-9">
          <mxGeometry relative="1" as="geometry">
            <Array as="points">
              <mxPoint x="413" y="668" />
            </Array>
          </mxGeometry>
        </mxCell>
        <mxCell id="FcwJixSid9qahFUKWtzI-31" value="" style="curved=1;startArrow=none;endArrow=block;exitX=0.78;exitY=0.99;entryX=0.5;entryY=-0.01;rounded=0;hachureGap=4;fontFamily=Architects Daughter;fontSource=https%3A%2F%2Ffonts.googleapis.com%2Fcss%3Ffamily%3DArchitects%2BDaughter;labelBackgroundColor=none;strokeColor=#09555B;fontColor=default;" edge="1" parent="1" source="FcwJixSid9qahFUKWtzI-6" target="FcwJixSid9qahFUKWtzI-10">
          <mxGeometry relative="1" as="geometry">
            <Array as="points">
              <mxPoint x="692" y="668" />
            </Array>
          </mxGeometry>
        </mxCell>
        <mxCell id="FcwJixSid9qahFUKWtzI-32" value="" style="curved=1;startArrow=none;endArrow=block;exitX=0.14;exitY=0.99;entryX=0.5;entryY=-0.01;rounded=0;hachureGap=4;fontFamily=Architects Daughter;fontSource=https%3A%2F%2Ffonts.googleapis.com%2Fcss%3Ffamily%3DArchitects%2BDaughter;labelBackgroundColor=none;strokeColor=#09555B;fontColor=default;" edge="1" parent="1" source="FcwJixSid9qahFUKWtzI-7" target="FcwJixSid9qahFUKWtzI-11">
          <mxGeometry relative="1" as="geometry">
            <Array as="points">
              <mxPoint x="954" y="668" />
            </Array>
          </mxGeometry>
        </mxCell>
        <mxCell id="FcwJixSid9qahFUKWtzI-33" value="" style="curved=1;startArrow=none;endArrow=block;exitX=0.86;exitY=0.99;entryX=0.5;entryY=-0.01;rounded=0;hachureGap=4;fontFamily=Architects Daughter;fontSource=https%3A%2F%2Ffonts.googleapis.com%2Fcss%3Ffamily%3DArchitects%2BDaughter;labelBackgroundColor=none;strokeColor=#09555B;fontColor=default;" edge="1" parent="1" source="FcwJixSid9qahFUKWtzI-7" target="FcwJixSid9qahFUKWtzI-12">
          <mxGeometry relative="1" as="geometry">
            <Array as="points">
              <mxPoint x="1233" y="668" />
            </Array>
          </mxGeometry>
        </mxCell>
        <mxCell id="FcwJixSid9qahFUKWtzI-34" value="" style="curved=1;startArrow=none;endArrow=block;exitX=0.5;exitY=0.99;entryX=0.5;entryY=-0.01;rounded=0;hachureGap=4;fontFamily=Architects Daughter;fontSource=https%3A%2F%2Ffonts.googleapis.com%2Fcss%3Ffamily%3DArchitects%2BDaughter;labelBackgroundColor=none;strokeColor=#09555B;fontColor=default;" edge="1" parent="1" source="FcwJixSid9qahFUKWtzI-9" target="FcwJixSid9qahFUKWtzI-13">
          <mxGeometry relative="1" as="geometry">
            <Array as="points" />
          </mxGeometry>
        </mxCell>
        <mxCell id="FcwJixSid9qahFUKWtzI-35" value="" style="curved=1;startArrow=none;endArrow=block;exitX=0.5;exitY=0.99;entryX=0.5;entryY=-0.01;rounded=0;hachureGap=4;fontFamily=Architects Daughter;fontSource=https%3A%2F%2Ffonts.googleapis.com%2Fcss%3Ffamily%3DArchitects%2BDaughter;labelBackgroundColor=none;strokeColor=#09555B;fontColor=default;" edge="1" parent="1" source="FcwJixSid9qahFUKWtzI-10" target="FcwJixSid9qahFUKWtzI-14">
          <mxGeometry relative="1" as="geometry">
            <Array as="points" />
          </mxGeometry>
        </mxCell>
        <mxCell id="FcwJixSid9qahFUKWtzI-36" value="" style="curved=1;startArrow=none;endArrow=block;exitX=0.5;exitY=0.99;entryX=0.5;entryY=-0.01;rounded=0;hachureGap=4;fontFamily=Architects Daughter;fontSource=https%3A%2F%2Ffonts.googleapis.com%2Fcss%3Ffamily%3DArchitects%2BDaughter;labelBackgroundColor=none;strokeColor=#09555B;fontColor=default;" edge="1" parent="1" source="FcwJixSid9qahFUKWtzI-11" target="FcwJixSid9qahFUKWtzI-15">
          <mxGeometry relative="1" as="geometry">
            <Array as="points" />
          </mxGeometry>
        </mxCell>
        <mxCell id="FcwJixSid9qahFUKWtzI-37" value="" style="curved=1;startArrow=none;endArrow=block;exitX=0.5;exitY=0.99;entryX=0.5;entryY=-0.01;rounded=0;hachureGap=4;fontFamily=Architects Daughter;fontSource=https%3A%2F%2Ffonts.googleapis.com%2Fcss%3Ffamily%3DArchitects%2BDaughter;labelBackgroundColor=none;strokeColor=#09555B;fontColor=default;" edge="1" parent="1" source="FcwJixSid9qahFUKWtzI-8" target="FcwJixSid9qahFUKWtzI-16">
          <mxGeometry relative="1" as="geometry">
            <Array as="points" />
          </mxGeometry>
        </mxCell>
        <mxCell id="FcwJixSid9qahFUKWtzI-38" value="" style="curved=1;startArrow=none;endArrow=block;exitX=0.5;exitY=0.99;entryX=0.5;entryY=-0.01;rounded=0;hachureGap=4;fontFamily=Architects Daughter;fontSource=https%3A%2F%2Ffonts.googleapis.com%2Fcss%3Ffamily%3DArchitects%2BDaughter;labelBackgroundColor=none;strokeColor=#09555B;fontColor=default;" edge="1" parent="1" source="FcwJixSid9qahFUKWtzI-13" target="FcwJixSid9qahFUKWtzI-17">
          <mxGeometry relative="1" as="geometry">
            <Array as="points" />
          </mxGeometry>
        </mxCell>
        <mxCell id="FcwJixSid9qahFUKWtzI-39" value="" style="curved=1;startArrow=none;endArrow=block;exitX=0.5;exitY=0.99;entryX=0.5;entryY=-0.01;rounded=0;hachureGap=4;fontFamily=Architects Daughter;fontSource=https%3A%2F%2Ffonts.googleapis.com%2Fcss%3Ffamily%3DArchitects%2BDaughter;labelBackgroundColor=none;strokeColor=#09555B;fontColor=default;" edge="1" parent="1" source="FcwJixSid9qahFUKWtzI-14" target="FcwJixSid9qahFUKWtzI-18">
          <mxGeometry relative="1" as="geometry">
            <Array as="points" />
          </mxGeometry>
        </mxCell>
        <mxCell id="FcwJixSid9qahFUKWtzI-40" value="" style="curved=1;startArrow=none;endArrow=block;exitX=0.5;exitY=0.99;entryX=0.5;entryY=-0.01;rounded=0;hachureGap=4;fontFamily=Architects Daughter;fontSource=https%3A%2F%2Ffonts.googleapis.com%2Fcss%3Ffamily%3DArchitects%2BDaughter;labelBackgroundColor=none;strokeColor=#09555B;fontColor=default;" edge="1" parent="1" source="FcwJixSid9qahFUKWtzI-16" target="FcwJixSid9qahFUKWtzI-19">
          <mxGeometry relative="1" as="geometry">
            <Array as="points" />
          </mxGeometry>
        </mxCell>
        <mxCell id="FcwJixSid9qahFUKWtzI-41" value="" style="curved=1;startArrow=none;endArrow=block;exitX=0.5;exitY=0.99;entryX=0.5;entryY=0.01;rounded=0;hachureGap=4;fontFamily=Architects Daughter;fontSource=https%3A%2F%2Ffonts.googleapis.com%2Fcss%3Ffamily%3DArchitects%2BDaughter;labelBackgroundColor=none;strokeColor=#09555B;fontColor=default;" edge="1" parent="1" source="FcwJixSid9qahFUKWtzI-17" target="FcwJixSid9qahFUKWtzI-20">
          <mxGeometry relative="1" as="geometry">
            <Array as="points" />
          </mxGeometry>
        </mxCell>
        <mxCell id="FcwJixSid9qahFUKWtzI-42" value="" style="curved=1;startArrow=none;endArrow=block;exitX=0.5;exitY=0.99;entryX=0.5;entryY=0.01;rounded=0;hachureGap=4;fontFamily=Architects Daughter;fontSource=https%3A%2F%2Ffonts.googleapis.com%2Fcss%3Ffamily%3DArchitects%2BDaughter;labelBackgroundColor=none;strokeColor=#09555B;fontColor=default;" edge="1" parent="1" source="FcwJixSid9qahFUKWtzI-18" target="FcwJixSid9qahFUKWtzI-21">
          <mxGeometry relative="1" as="geometry">
            <Array as="points" />
          </mxGeometry>
        </mxCell>
        <mxCell id="FcwJixSid9qahFUKWtzI-46" value="" style="shape=umlActor;verticalLabelPosition=bottom;verticalAlign=top;html=1;strokeColor=#808080;fontColor=#1A1A1A;fillColor=#FAD9D5;" vertex="1" parent="1">
          <mxGeometry x="510.5" y="-70" width="84" height="90" as="geometry" />
        </mxCell>
      </root>
    </mxGraphModel>
  </diagram>
</mxfile>
